<mxfile host="app.diagrams.net" modified="2023-06-19T22:15:25.902Z" agent="Mozilla/5.0 (Macintosh; Intel Mac OS X 10_15_7) AppleWebKit/537.36 (KHTML, like Gecko) Chrome/114.0.0.0 Safari/537.36" etag="xGSCC-25Na6yQwjg2K7X" version="21.4.0" type="device">
  <diagram name="Page-1" id="Ig4pDuT1F0aERB6ShzDS">
    <mxGraphModel dx="1972" dy="605" grid="1" gridSize="10" guides="1" tooltips="1" connect="1" arrows="1" fold="1" page="1" pageScale="1" pageWidth="850" pageHeight="1100" math="0" shadow="0">
      <root>
        <mxCell id="0" />
        <mxCell id="1" parent="0" />
        <mxCell id="1UfsnkjmmG93mhFOwy3N-14" style="edgeStyle=orthogonalEdgeStyle;rounded=0;orthogonalLoop=1;jettySize=auto;html=1;" edge="1" parent="1" source="1UfsnkjmmG93mhFOwy3N-1">
          <mxGeometry relative="1" as="geometry">
            <mxPoint x="170" y="170" as="targetPoint" />
          </mxGeometry>
        </mxCell>
        <mxCell id="1UfsnkjmmG93mhFOwy3N-15" style="edgeStyle=orthogonalEdgeStyle;rounded=0;orthogonalLoop=1;jettySize=auto;html=1;entryX=0;entryY=0.5;entryDx=0;entryDy=0;" edge="1" parent="1" source="1UfsnkjmmG93mhFOwy3N-1" target="1UfsnkjmmG93mhFOwy3N-3">
          <mxGeometry relative="1" as="geometry" />
        </mxCell>
        <mxCell id="1UfsnkjmmG93mhFOwy3N-1" value="" style="rounded=0;whiteSpace=wrap;html=1;fillColor=none;" vertex="1" parent="1">
          <mxGeometry x="100" y="220" width="140" height="90" as="geometry" />
        </mxCell>
        <mxCell id="1UfsnkjmmG93mhFOwy3N-2" value="Sender" style="text;html=1;strokeColor=none;fillColor=none;align=center;verticalAlign=middle;whiteSpace=wrap;rounded=0;" vertex="1" parent="1">
          <mxGeometry x="140" y="250" width="60" height="30" as="geometry" />
        </mxCell>
        <mxCell id="1UfsnkjmmG93mhFOwy3N-21" style="edgeStyle=orthogonalEdgeStyle;rounded=0;orthogonalLoop=1;jettySize=auto;html=1;entryX=0;entryY=0.5;entryDx=0;entryDy=0;" edge="1" parent="1" source="1UfsnkjmmG93mhFOwy3N-3" target="1UfsnkjmmG93mhFOwy3N-5">
          <mxGeometry relative="1" as="geometry" />
        </mxCell>
        <mxCell id="1UfsnkjmmG93mhFOwy3N-3" value="" style="rounded=0;whiteSpace=wrap;html=1;fillColor=none;" vertex="1" parent="1">
          <mxGeometry x="285" y="220" width="140" height="90" as="geometry" />
        </mxCell>
        <mxCell id="1UfsnkjmmG93mhFOwy3N-4" value="RabbitMQ" style="text;html=1;strokeColor=none;fillColor=none;align=center;verticalAlign=middle;whiteSpace=wrap;rounded=0;" vertex="1" parent="1">
          <mxGeometry x="325" y="250" width="60" height="30" as="geometry" />
        </mxCell>
        <mxCell id="1UfsnkjmmG93mhFOwy3N-5" value="" style="rounded=0;whiteSpace=wrap;html=1;fillColor=none;" vertex="1" parent="1">
          <mxGeometry x="480" y="220" width="140" height="90" as="geometry" />
        </mxCell>
        <mxCell id="1UfsnkjmmG93mhFOwy3N-6" value="Processor" style="text;html=1;strokeColor=none;fillColor=none;align=center;verticalAlign=middle;whiteSpace=wrap;rounded=0;" vertex="1" parent="1">
          <mxGeometry x="520" y="250" width="60" height="30" as="geometry" />
        </mxCell>
        <mxCell id="1UfsnkjmmG93mhFOwy3N-7" value="" style="shape=note;whiteSpace=wrap;html=1;backgroundOutline=1;darkOpacity=0.05;" vertex="1" parent="1">
          <mxGeometry x="-30" y="225" width="60" height="80" as="geometry" />
        </mxCell>
        <mxCell id="1UfsnkjmmG93mhFOwy3N-11" style="edgeStyle=orthogonalEdgeStyle;rounded=0;orthogonalLoop=1;jettySize=auto;html=1;entryX=0;entryY=0.5;entryDx=0;entryDy=0;" edge="1" parent="1" source="1UfsnkjmmG93mhFOwy3N-10" target="1UfsnkjmmG93mhFOwy3N-1">
          <mxGeometry relative="1" as="geometry" />
        </mxCell>
        <mxCell id="1UfsnkjmmG93mhFOwy3N-10" value="File" style="text;html=1;strokeColor=none;fillColor=none;align=center;verticalAlign=middle;whiteSpace=wrap;rounded=0;" vertex="1" parent="1">
          <mxGeometry x="-30" y="250" width="60" height="30" as="geometry" />
        </mxCell>
        <mxCell id="1UfsnkjmmG93mhFOwy3N-12" value="HTTP" style="text;html=1;strokeColor=none;fillColor=none;align=center;verticalAlign=middle;whiteSpace=wrap;rounded=0;" vertex="1" parent="1">
          <mxGeometry x="30" y="240" width="60" height="30" as="geometry" />
        </mxCell>
        <mxCell id="1UfsnkjmmG93mhFOwy3N-13" value="Bucket" style="sketch=0;outlineConnect=0;fontColor=#232F3E;gradientColor=none;strokeColor=#232F3E;fillColor=#ffffff;dashed=0;verticalLabelPosition=bottom;verticalAlign=top;align=center;html=1;fontSize=12;fontStyle=0;aspect=fixed;shape=mxgraph.aws4.resourceIcon;resIcon=mxgraph.aws4.bucket;" vertex="1" parent="1">
          <mxGeometry x="140" y="80" width="60" height="60" as="geometry" />
        </mxCell>
        <mxCell id="1UfsnkjmmG93mhFOwy3N-18" value="" style="image;aspect=fixed;perimeter=ellipsePerimeter;html=1;align=center;shadow=0;dashed=0;fontColor=#4277BB;labelBackgroundColor=default;fontSize=12;spacingTop=3;image=img/lib/ibm/vpc/ObjectStorage.svg;" vertex="1" parent="1">
          <mxGeometry x="90" y="20" width="30" height="30" as="geometry" />
        </mxCell>
        <mxCell id="1UfsnkjmmG93mhFOwy3N-19" value="IBM Cloud&lt;br&gt;COS" style="text;html=1;strokeColor=none;fillColor=none;align=center;verticalAlign=middle;whiteSpace=wrap;rounded=0;" vertex="1" parent="1">
          <mxGeometry x="130" y="20" width="60" height="30" as="geometry" />
        </mxCell>
        <mxCell id="1UfsnkjmmG93mhFOwy3N-23" style="edgeStyle=orthogonalEdgeStyle;rounded=0;orthogonalLoop=1;jettySize=auto;html=1;entryX=0.5;entryY=0;entryDx=0;entryDy=0;exitX=0.793;exitY=0.997;exitDx=0;exitDy=0;exitPerimeter=0;" edge="1" parent="1" source="1UfsnkjmmG93mhFOwy3N-20" target="1UfsnkjmmG93mhFOwy3N-5">
          <mxGeometry relative="1" as="geometry" />
        </mxCell>
        <mxCell id="1UfsnkjmmG93mhFOwy3N-20" value="" style="rounded=0;whiteSpace=wrap;html=1;fillColor=none;dashed=1;" vertex="1" parent="1">
          <mxGeometry x="90" y="10" width="580" height="150" as="geometry" />
        </mxCell>
        <mxCell id="1UfsnkjmmG93mhFOwy3N-22" value="Object&lt;br&gt;ID" style="text;html=1;strokeColor=none;fillColor=none;align=center;verticalAlign=middle;whiteSpace=wrap;rounded=0;" vertex="1" parent="1">
          <mxGeometry x="230" y="230" width="60" height="30" as="geometry" />
        </mxCell>
        <mxCell id="1UfsnkjmmG93mhFOwy3N-24" value="Upload" style="text;html=1;strokeColor=none;fillColor=none;align=center;verticalAlign=middle;whiteSpace=wrap;rounded=0;" vertex="1" parent="1">
          <mxGeometry x="110" y="180" width="60" height="30" as="geometry" />
        </mxCell>
        <mxCell id="1UfsnkjmmG93mhFOwy3N-25" value="Download" style="text;html=1;strokeColor=none;fillColor=none;align=center;verticalAlign=middle;whiteSpace=wrap;rounded=0;" vertex="1" parent="1">
          <mxGeometry x="490" y="180" width="60" height="30" as="geometry" />
        </mxCell>
        <mxCell id="1UfsnkjmmG93mhFOwy3N-26" value="Bucket" style="sketch=0;outlineConnect=0;fontColor=#232F3E;gradientColor=none;strokeColor=#232F3E;fillColor=#ffffff;dashed=0;verticalLabelPosition=bottom;verticalAlign=top;align=center;html=1;fontSize=12;fontStyle=0;aspect=fixed;shape=mxgraph.aws4.resourceIcon;resIcon=mxgraph.aws4.bucket;" vertex="1" parent="1">
          <mxGeometry x="230" y="80" width="60" height="60" as="geometry" />
        </mxCell>
        <mxCell id="1UfsnkjmmG93mhFOwy3N-27" value="Bucket" style="sketch=0;outlineConnect=0;fontColor=#232F3E;gradientColor=none;strokeColor=#232F3E;fillColor=#ffffff;dashed=0;verticalLabelPosition=bottom;verticalAlign=top;align=center;html=1;fontSize=12;fontStyle=0;aspect=fixed;shape=mxgraph.aws4.resourceIcon;resIcon=mxgraph.aws4.bucket;" vertex="1" parent="1">
          <mxGeometry x="310" y="80" width="60" height="60" as="geometry" />
        </mxCell>
      </root>
    </mxGraphModel>
  </diagram>
</mxfile>
